<svg width="496" height="1005" viewBox="0 0 496 1005" xmlns="http://www.w3.org/2000/svg" lang="en" xml:lang="en"><rect x="2" y="2" stroke-width="4" rx="6" width="492" height="1001" stroke="rgba(56,139,253,0.4)" fill="#0d1117"/><g font-weight="600" font-size="110pt" font-family="Verdana,Geneva,DejaVu Sans,sans-serif" text-rendering="geometricPrecision"><text x="603" y="301" lengthAdjust="spacingAndGlyphs" textLength="2826" transform="scale(0.123)" fill="#58a6ff">CloudSwordSage's GitHub Activity</text><svg x="15" y="15" width="25" height="25" viewBox="0 0 16 16"><path fill="#ffffff" fill-rule="evenodd" d="M8 0C3.58 0 0 3.58 0 8c0 3.54 2.29 6.53 5.47 7.59.4.07.55-.17.55-.38 0-.19-.01-.82-.01-1.49-2.01.37-2.53-.49-2.69-.94-.09-.23-.48-.94-.82-1.13-.28-.15-.68-.52-.01-.53.63-.01 1.08.58 1.23.82.72 1.21 1.87.87 2.33.66.07-.52.28-.87.51-1.07-1.78-.2-3.64-.89-3.64-3.95 0-.87.31-1.59.82-2.15-.08-.2-.36-1.02.08-2.12 0 0 .67-.21 2.2.82.64-.18 1.32-.27 2-.27.68 0 1.36.09 2 .27 1.53-1.04 2.2-.82 2.2-.82.44 1.1.16 1.92.08 2.12.51.56.82 1.27.82 2.15 0 3.07-1.87 3.75-3.65 3.95.29.25.54.73.54 1.48 0 1.07-.01 1.93-.01 2.2 0 .21.15.46.55.38A8.013 8.013 0 0016 8c0-4.42-3.58-8-8-8z"/></svg><svg x="456" y="15" width="25" height="25" viewBox="0 0 16 16"><path fill="#ffffff" fill-rule="evenodd" d="M8 0C3.58 0 0 3.58 0 8c0 3.54 2.29 6.53 5.47 7.59.4.07.55-.17.55-.38 0-.19-.01-.82-.01-1.49-2.01.37-2.53-.49-2.69-.94-.09-.23-.48-.94-.82-1.13-.28-.15-.68-.52-.01-.53.63-.01 1.08.58 1.23.82.72 1.21 1.87.87 2.33.66.07-.52.28-.87.51-1.07-1.78-.2-3.64-.89-3.64-3.95 0-.87.31-1.59.82-2.15-.08-.2-.36-1.02.08-2.12 0 0 .67-.21 2.2.82.64-.18 1.32-.27 2-.27.68 0 1.36.09 2 .27 1.53-1.04 2.2-.82 2.2-.82.44 1.1.16 1.92.08 2.12.51.56.82 1.27.82 2.15 0 3.07-1.87 3.75-3.65 3.95.29.25.54.73.54 1.48 0 1.07-.01 1.93-.01 2.2 0 .21.15.46.55.38A8.013 8.013 0 0016 8c0-4.42-3.58-8-8-8z"/></svg><g transform="translate(0, 60)" fill="#c9d1d9"><g transform="translate(15, 0)"><g transform="scale(0.095)"><text x="0" y="132" textLength="1020" lengthAdjust="spacingAndGlyphs">Repositories</text><text x="2611" y="132" textLength="832" lengthAdjust="spacingAndGlyphs">Non-Forks</text><text x="3916" y="132" textLength="206" lengthAdjust="spacingAndGlyphs">All</text></g></g><g transform="translate(15, 21)"><path fill="#1f6feb" fill-rule="evenodd" d="M2 2.5A2.5 2.5 0 014.5 0h8.75a.75.75 0 01.75.75v12.5a.75.75 0 01-.75.75h-2.5a.75.75 0 110-1.5h1.75v-2h-8a1 1 0 00-.714 1.7.75.75 0 01-1.072 1.05A2.495 2.495 0 012 11.5v-9zm10.5-1V9h-8c-.356 0-.694.074-1 .208V2.5a1 1 0 011-1h8zM5 12.25v3.25a.25.25 0 00.4.2l1.45-1.087a.25.25 0 01.3 0L8.6 15.7a.25.25 0 00.4-.2v-3.25a.25.25 0 00-.25-.25h-3.5a.25.25 0 00-.25.25z"/><g transform="scale(0.095)"><text lengthAdjust="spacingAndGlyphs" textLength="1312" x="263" y="132">My Repositories</text><text lengthAdjust="spacingAndGlyphs" textLength="210" x="2611" y="132">28</text><text lengthAdjust="spacingAndGlyphs" textLength="210" x="3916" y="132">32</text></g></g><g transform="translate(15, 42)"><path fill="#1f6feb" fill-rule="evenodd" d="M8 .25a.75.75 0 01.673.418l1.882 3.815 4.21.612a.75.75 0 01.416 1.279l-3.046 2.97.719 4.192a.75.75 0 01-1.088.791L8 12.347l-3.766 1.98a.75.75 0 01-1.088-.79l.72-4.194L.818 6.374a.75.75 0 01.416-1.28l4.21-.611L7.327.668A.75.75 0 018 .25zm0 2.445L6.615 5.5a.75.75 0 01-.564.41l-3.097.45 2.24 2.184a.75.75 0 01.216.664l-.528 3.084 2.769-1.456a.75.75 0 01.698 0l2.77 1.456-.53-3.084a.75.75 0 01.216-.664l2.24-2.183-3.096-.45a.75.75 0 01-.564-.41L8 2.694v.001z"/><g transform="scale(0.095)"><text lengthAdjust="spacingAndGlyphs" textLength="874" x="263" y="132">Starred By</text><text lengthAdjust="spacingAndGlyphs" textLength="105" x="2611" y="132">5</text><text lengthAdjust="spacingAndGlyphs" textLength="105" x="3916" y="132">5</text></g></g><g transform="translate(15, 63)"><path fill="#1f6feb" fill-rule="evenodd" d="M5 3.25a.75.75 0 11-1.5 0 .75.75 0 011.5 0zm0 2.122a2.25 2.25 0 10-1.5 0v.878A2.25 2.25 0 005.75 8.5h1.5v2.128a2.251 2.251 0 101.5 0V8.5h1.5a2.25 2.25 0 002.25-2.25v-.878a2.25 2.25 0 10-1.5 0v.878a.75.75 0 01-.75.75h-4.5A.75.75 0 015 6.25v-.878zm3.75 7.378a.75.75 0 11-1.5 0 .75.75 0 011.5 0zm3-8.75a.75.75 0 100-1.5.75.75 0 000 1.5z"/><g transform="scale(0.095)"><text lengthAdjust="spacingAndGlyphs" textLength="828" x="263" y="132">Forked By</text><text lengthAdjust="spacingAndGlyphs" textLength="105" x="2611" y="132">1</text><text lengthAdjust="spacingAndGlyphs" textLength="105" x="3916" y="132">1</text></g></g><g transform="translate(15, 84)"><path fill="#1f6feb" fill-rule="evenodd" d="M1.679 7.932c.412-.621 1.242-1.75 2.366-2.717C5.175 4.242 6.527 3.5 8 3.5c1.473 0 2.824.742 3.955 1.715 1.124.967 1.954 2.096 2.366 2.717a.119.119 0 010 .136c-.412.621-1.242 1.75-2.366 2.717C10.825 11.758 9.473 12.5 8 12.5c-1.473 0-2.824-.742-3.955-1.715C2.92 9.818 2.09 8.69 1.679 8.068a.119.119 0 010-.136zM8 2c-1.981 0-3.67.992-4.933 2.078C1.797 5.169.88 6.423.43 7.1a1.619 1.619 0 000 1.798c.45.678 1.367 1.932 2.637 3.024C4.329 13.008 6.019 14 8 14c1.981 0 3.67-.992 4.933-2.078 1.27-1.091 2.187-2.345 2.637-3.023a1.619 1.619 0 000-1.798c-.45-.678-1.367-1.932-2.637-3.023C11.671 2.992 9.981 2 8 2zm0 8a2 2 0 100-4 2 2 0 000 4z"/><g transform="scale(0.095)"><text lengthAdjust="spacingAndGlyphs" textLength="993" x="263" y="132">Watched By</text><text lengthAdjust="spacingAndGlyphs" textLength="210" x="2611" y="132">14</text><text lengthAdjust="spacingAndGlyphs" textLength="210" x="3916" y="132">14</text></g></g><g transform="translate(15, 105)"><path fill="#1f6feb" fill-rule="evenodd" d="M6 .75A.75.75 0 016.75 0h2.5a.75.75 0 010 1.5h-2.5A.75.75 0 016 .75zm5 0a.75.75 0 01.75-.75h1.5a.75.75 0 01.75.75v1.5a.75.75 0 01-1.5 0V1.5h-.75A.75.75 0 0111 .75zM4.992.662a.75.75 0 01-.636.848c-.436.063-.783.41-.846.846a.75.75 0 01-1.485-.212A2.501 2.501 0 014.144.025a.75.75 0 01.848.637zM2.75 4a.75.75 0 01.75.75v1.5a.75.75 0 01-1.5 0v-1.5A.75.75 0 012.75 4zm10.5 0a.75.75 0 01.75.75v1.5a.75.75 0 01-1.5 0v-1.5a.75.75 0 01.75-.75zM2.75 8a.75.75 0 01.75.75v.268A1.72 1.72 0 013.75 9h.5a.75.75 0 010 1.5h-.5a.25.25 0 00-.25.25v.75c0 .28.114.532.3.714a.75.75 0 01-1.05 1.072A2.495 2.495 0 012 11.5V8.75A.75.75 0 012.75 8zm10.5 0a.75.75 0 01.75.75v4.5a.75.75 0 01-.75.75h-2.5a.75.75 0 010-1.5h1.75v-2h-.75a.75.75 0 010-1.5h.75v-.25a.75.75 0 01.75-.75zM6 9.75A.75.75 0 016.75 9h2.5a.75.75 0 010 1.5h-2.5A.75.75 0 016 9.75zm-1 2.5v3.25a.25.25 0 00.4.2l1.45-1.087a.25.25 0 01.3 0L8.6 15.7a.25.25 0 00.4-.2v-3.25a.25.25 0 00-.25-.25h-3.5a.25.25 0 00-.25.25z"/><g transform="scale(0.095)"><text lengthAdjust="spacingAndGlyphs" textLength="868" x="263" y="132">Templates</text><text lengthAdjust="spacingAndGlyphs" textLength="105" x="2611" y="132">0</text><text lengthAdjust="spacingAndGlyphs" textLength="105" x="3916" y="132">2</text></g></g></g><g transform="translate(0, 207)" fill="#c9d1d9"><g transform="translate(15, 0)"><g transform="scale(0.095)"><text x="0" y="132" textLength="1112" lengthAdjust="spacingAndGlyphs">Contributions</text><text x="2611" y="132" textLength="774" lengthAdjust="spacingAndGlyphs">Past Year</text><text x="3916" y="132" textLength="414" lengthAdjust="spacingAndGlyphs">Total</text></g></g><g transform="translate(15, 21)"><path fill="#1f6feb" fill-rule="evenodd" d="M10.5 7.75a2.5 2.5 0 11-5 0 2.5 2.5 0 015 0zm1.43.75a4.002 4.002 0 01-7.86 0H.75a.75.75 0 110-1.5h3.32a4.001 4.001 0 017.86 0h3.32a.75.75 0 110 1.5h-3.32z"/><g transform="scale(0.095)"><text lengthAdjust="spacingAndGlyphs" textLength="734" x="263" y="132">Commits</text><text lengthAdjust="spacingAndGlyphs" textLength="315" x="2611" y="132">846</text><text lengthAdjust="spacingAndGlyphs" textLength="315" x="3916" y="132">984</text></g></g><g transform="translate(15, 42)"><path fill="#1f6feb" d="M8 9.5a1.5 1.5 0 100-3 1.5 1.5 0 000 3z"/><path fill="#1f6feb" fill-rule="evenodd" d="M8 0a8 8 0 100 16A8 8 0 008 0zM1.5 8a6.5 6.5 0 1113 0 6.5 6.5 0 01-13 0z"/><g transform="scale(0.095)"><text lengthAdjust="spacingAndGlyphs" textLength="512" x="263" y="132">Issues</text><text lengthAdjust="spacingAndGlyphs" textLength="105" x="2611" y="132">4</text><text lengthAdjust="spacingAndGlyphs" textLength="105" x="3916" y="132">4</text></g></g><g transform="translate(15, 63)"><path fill="#1f6feb" fill-rule="evenodd" d="M7.177 3.073L9.573.677A.25.25 0 0110 .854v4.792a.25.25 0 01-.427.177L7.177 3.427a.25.25 0 010-.354zM3.75 2.5a.75.75 0 100 1.5.75.75 0 000-1.5zm-2.25.75a2.25 2.25 0 113 2.122v5.256a2.251 2.251 0 11-1.5 0V5.372A2.25 2.25 0 011.5 3.25zM11 2.5h-1V4h1a1 1 0 011 1v5.628a2.251 2.251 0 101.5 0V5A2.5 2.5 0 0011 2.5zm1 10.25a.75.75 0 111.5 0 .75.75 0 01-1.5 0zM3.75 12a.75.75 0 100 1.5.75.75 0 000-1.5z"/><g transform="scale(0.095)"><text lengthAdjust="spacingAndGlyphs" textLength="1113" x="263" y="132">Pull Requests</text><text lengthAdjust="spacingAndGlyphs" textLength="105" x="2611" y="132">1</text><text lengthAdjust="spacingAndGlyphs" textLength="105" x="3916" y="132">2</text></g></g><g transform="translate(15, 84)"><path fill="#1f6feb" fill-rule="evenodd" d="M1 2.5A2.5 2.5 0 013.5 0h8.75a.75.75 0 01.75.75v3.5a.75.75 0 01-1.5 0V1.5h-8a1 1 0 00-1 1v6.708A2.492 2.492 0 013.5 9h3.25a.75.75 0 010 1.5H3.5a1 1 0 100 2h5.75a.75.75 0 010 1.5H3.5A2.5 2.5 0 011 11.5v-9zm13.23 7.79a.75.75 0 001.06-1.06l-2.505-2.505a.75.75 0 00-1.06 0L9.22 9.229a.75.75 0 001.06 1.061l1.225-1.224v6.184a.75.75 0 001.5 0V9.066l1.224 1.224z"/><g transform="scale(0.095)"><text lengthAdjust="spacingAndGlyphs" textLength="1234" x="263" y="132">Contributed To</text><text lengthAdjust="spacingAndGlyphs" textLength="105" x="2611" y="132">4</text></g></g></g><g transform="translate(0, 333)" fill="#c9d1d9"><g transform="translate(15, 0)"><g transform="scale(0.095)"><text x="0" y="132" textLength="3652" lengthAdjust="spacingAndGlyphs">Language Distribution in Public Repositories</text></g></g><g transform="translate(263, 21)"><circle cx="102" cy="102" r="102" fill="#ffffff"/></g><g transform="translate(264, 22)"><g><path fill-rule="evenodd" fill="#3178c6" d="M 0.0,101.00000000000001 A 101 101 0 1 1 7.462591888278368 139.10188031765932 L 101,101 Z"/><path fill-rule="evenodd" fill="#663399" d="M 7.462591888278368,139.10188031765932 A 101 101 0 0 1 4.477492272464644 130.73895596667572 L 101,101 Z"/><path fill-rule="evenodd" fill="#f1e05a" d="M 4.477492272464644,130.73895596667572 A 101 101 0 0 1 2.6245952774708172 123.8753086466299 L 101,101 Z"/><path fill-rule="evenodd" fill="#264b99" d="M 2.6245952774708172,123.8753086466299 A 101 101 0 0 1 1.7352276566638096 119.64148523121585 L 101,101 Z"/><path fill-rule="evenodd" fill="#3572A5" d="M 1.7352276566638096,119.64148523121585 A 101 101 0 0 1 1.081107751681074 115.7382146771185 L 101,101 Z"/><path fill-rule="evenodd" fill="#dea584" d="M 1.081107751681074,115.7382146771185 A 101 101 0 0 1 0.585453114380968 111.85904110664555 L 101,101 Z"/><path fill-rule="evenodd" fill="#e34c26" d="M 0.585453114380968,111.85904110664555 A 101 101 0 0 1 0.3065062333399311 108.86258946299431 L 101,101 Z"/><path fill-rule="evenodd" fill="#f34b7d" d="M 0.3065062333399311,108.86258946299431 A 101 101 0 0 1 0.12040140787230769 105.93017118274697 L 101,101 Z"/><path fill-rule="evenodd" fill="#ca0f21" d="M 0.12040140787230769,105.93017118274697 A 101 101 0 0 1 0.05561217942316432 104.35120389248074 L 101,101 Z"/><path fill-rule="evenodd" fill="#41b883" d="M 0.05561217942316432,104.35120389248074 A 101 101 0 0 1 0.028530812999022714 103.40050207633989 L 101,101 Z"/><path fill-rule="evenodd" fill="#89e051" d="M 0.028530812999022714,103.40050207633989 A 101 101 0 0 1 0.011451044795549592 102.52084842186034 L 101,101 Z"/><path fill-rule="evenodd" fill="#DA5B0B" d="M 0.011451044795549592,102.52084842186034 A 101 101 0 0 1 0.007422848118451952 102.22448365495585 L 101,101 Z"/><path fill-rule="evenodd" fill="#00ADD8" d="M 0.007422848118451952,102.22448365495585 A 101 101 0 0 1 0.005284000440170189 102.03312156509058 L 101,101 Z"/><path fill-rule="evenodd" fill="#012456" d="M 0.005284000440170189,102.03312156509058 A 101 101 0 0 1 0.0036323680486418652 101.85657758068194 L 101,101 Z"/><path fill-rule="evenodd" fill="#C1F12E" d="M 0.0036323680486418652,101.85657758068194 A 101 101 0 0 1 0.002422597022160744 101.6995417996814 L 101,101 Z"/><path fill-rule="evenodd" fill="#8ea64c" d="M 0.002422597022160744,101.6995417996814 A 101 101 0 0 1 0.001714378483441692 101.58847388604855 L 101,101 Z"/><path fill-rule="evenodd" fill="#959da5" d="M 0.001714378483441692,101.58847388604855 A 101 101 0 0 1 0.0011693138399380132 101.48600414439973 L 101,101 Z"/><path fill-rule="evenodd" fill="#DA3434" d="M 0.0011693138399380132,101.48600414439973 A 101 101 0 0 1 0.0008011446779363496 101.40228172107636 L 101,101 Z"/><path fill-rule="evenodd" fill="#555555" d="M 0.0008011446779363496,101.40228172107636 A 101 101 0 0 1 0.000519745571381236 101.32401903536879 L 101,101 Z"/><path fill-rule="evenodd" fill="#c6538c" d="M 0.000519745571381236,101.32401903536879 A 101 101 0 0 1 0.00036513908395363615 101.27158417043347 L 101,101 Z"/><path fill-rule="evenodd" fill="#4298b8" d="M 0.00036513908395363615,101.27158417043347 A 101 101 0 0 1 0.00028750468190708034 101.24098934226726 L 101,101 Z"/><path fill-rule="evenodd" fill="#3A4E3A" d="M 0.00028750468190708034,101.24098934226726 A 101 101 0 0 1 0.00022393424869449063 101.2126844331142 L 101,101 Z"/><path fill-rule="evenodd" fill="#b07219" d="M 0.00022393424869449063,101.2126844331142 A 101 101 0 0 1 0.0001709943133789693 101.18585161302336 L 101,101 Z"/><path fill-rule="evenodd" fill="#427819" d="M 0.0001709943133789693,101.18585161302336 A 101 101 0 0 1 0.00013952761339908193 101.16788257336721 L 101,101 Z"/><path fill-rule="evenodd" fill="#0298c3" d="M 0.00013952761339908193,101.16788257336721 A 101 101 0 0 1 0.00011575333608959681 101.15291226403211 L 101,101 Z"/><path fill-rule="evenodd" fill="#701516" d="M 0.00011575333608959681,101.15291226403211 A 101 101 0 0 1 9.654206277787125e-05 101.13964772594036 L 101,101 Z"/><path fill-rule="evenodd" fill="#3D6117" d="M 9.654206277787125e-05,101.13964772594036 A 101 101 0 0 1 8.00603043700221e-05 101.1271698670002 L 101,101 Z"/><path fill-rule="evenodd" fill="#6866fb" d="M 8.00603043700221e-05,101.1271698670002 A 101 101 0 0 1 6.703562388565842e-05 101.11636662550715 L 101,101 Z"/><path fill-rule="evenodd" fill="#438eff" d="M 6.703562388565842e-05,101.11636662550715 A 101 101 0 0 1 5.516648914749567e-05 101.10556338268258 L 101,101 Z"/><path fill-rule="evenodd" fill="#db5855" d="M 5.516648914749567e-05,101.10556338268258 A 101 101 0 0 1 4.5785437890799585e-05 101.09616993479932 L 101,101 Z"/><path fill-rule="evenodd" fill="#384d54" d="M 4.5785437890799585e-05,101.09616993479932 A 101 101 0 0 1 3.780182591128778e-05 101.08738402259189 L 101,101 Z"/><path fill-rule="evenodd" fill="#f7931e" d="M 3.780182591128778e-05,101.08738402259189 A 101 101 0 0 1 3.097164993448587e-05 101.07909660125004 L 101,101 Z"/><path fill-rule="evenodd" fill="#1d365d" d="M 3.097164993448587e-05,101.07909660125004 A 101 101 0 0 1 2.501297906576383e-05 101.0710817919451 L 101,101 Z"/><path fill-rule="evenodd" fill="#4F5D95" d="M 2.501297906576383e-05,101.0710817919451 A 101 101 0 0 1 1.984138043553685e-05 101.06330843905224 L 101,101 Z"/><path fill-rule="evenodd" fill="#a270ba" d="M 1.984138043553685e-05,101.06330843905224 A 101 101 0 0 1 1.5517459999614402e-05 101.05598684379963 L 101,101 Z"/><path fill-rule="evenodd" fill="#945db7" d="M 1.5517459999614402e-05,101.05598684379963 A 101 101 0 0 1 1.1901342929832026e-05 101.04903132803615 L 101,101 Z"/><path fill-rule="evenodd" fill="#178600" d="M 1.1901342929832026e-05,101.04903132803615 A 101 101 0 0 1 8.858579931825261e-06 101.0423016910625 L 101,101 Z"/><path fill-rule="evenodd" fill="#0000fb" d="M 8.858579931825261e-06,101.0423016910625 A 101 101 0 0 1 6.5499542358793406e-06 101.03637431389555 L 101,101 Z"/><path fill-rule="evenodd" fill="#7e858d" d="M 6.5499542358793406e-06,101.03637431389555 A 101 101 0 0 1 4.759801711884393e-06 101.031007739716 L 101,101 Z"/><path fill-rule="evenodd" fill="#a86454" d="M 4.759801711884393e-06,101.031007739716 A 101 101 0 0 1 3.324375768443133e-06 101.02591377807691 L 101,101 Z"/><path fill-rule="evenodd" fill="#b845fc" d="M 3.324375768443133e-06,101.02591377807691 A 101 101 0 0 1 2.1780969774454206e-06 101.02097559501813 L 101,101 Z"/><path fill-rule="evenodd" fill="#244776" d="M 2.1780969774454206e-06,101.02097559501813 A 101 101 0 0 1 1.3282598700925519e-06 101.0163801249338 L 101,101 Z"/><path fill-rule="evenodd" fill="#198CE7" d="M 1.3282598700925519e-06,101.0163801249338 A 101 101 0 0 1 9.10336694914804e-07 101.01356053140714 L 101,101 Z"/><path fill-rule="evenodd" fill="#ecdebe" d="M 9.10336694914804e-07,101.01356053140714 A 101 101 0 0 1 5.802753406669581e-07 101.01082661612682 L 101,101 Z"/><path fill-rule="evenodd" fill="#222c37" d="M 5.802753406669581e-07,101.01082661612682 A 101 101 0 0 1 3.374552903778749e-07 101.00825626841983 L 101,101 Z"/><path fill-rule="evenodd" fill="#00B4AB" d="M 3.374552903778749e-07,101.00825626841983 A 101 101 0 0 1 1.6268973013211507e-07 101.00573265430242 L 101,101 Z"/><path fill-rule="evenodd" fill="#F05138" d="M 1.6268973013211507e-07,101.00573265430242 A 101 101 0 0 1 6.13594295373332e-08 101.00352059748035 L 101,101 Z"/><path fill-rule="evenodd" fill="#000080" d="M 6.13594295373332e-08,101.00352059748035 A 101 101 0 0 1 1.2013359196316742e-08 101.00155778649612 L 101,101 Z"/><path fill-rule="evenodd" fill="#aace60" d="M 1.2013359196316742e-08,101.00155778649612 A 101 101 0 0 1 7.689493486395804e-11 101.00012462291981 L 101,101 Z"/><path fill-rule="evenodd" fill="#878787" d="M 7.689493486395804e-11,101.00012462291981 A 101 101 0 0 1 0.0 101.00000000000004 L 101,101 Z"/><animateTransform attributeName="transform" attributeType="XML" type="rotate" from="0 101 101" to="360 101 101" dur="10s" repeatCount="indefinite"/></g></g><g transform="translate(15, 21)"><rect x="0.5" y="0.5" rx="2" width="15" height="15" fill="#3178c6" stroke-width="1" stroke="#ffffff"/><text transform="scale(0.095)" x="263" y="132" textLength="1568" lengthAdjust="spacingAndGlyphs">TypeScript 93.84%</text></g><g transform="translate(15, 42)"><rect x="0.5" y="0.5" rx="2" width="15" height="15" fill="#663399" stroke-width="1" stroke="#ffffff"/><text transform="scale(0.095)" x="263" y="132" textLength="903" lengthAdjust="spacingAndGlyphs">CSS 1.40%</text></g><g transform="translate(15, 63)"><rect x="0.5" y="0.5" rx="2" width="15" height="15" fill="#f1e05a" stroke-width="1" stroke="#ffffff"/><text transform="scale(0.095)" x="263" y="132" textLength="1412" lengthAdjust="spacingAndGlyphs">JavaScript 1.12%</text></g><g transform="translate(15, 84)"><rect x="0.5" y="0.5" rx="2" width="15" height="15" fill="#264b99" stroke-width="1" stroke="#ffffff"/><text transform="scale(0.095)" x="263" y="132" textLength="1470" lengthAdjust="spacingAndGlyphs">Inno Setup 0.68%</text></g><g transform="translate(15, 105)"><rect x="0.5" y="0.5" rx="2" width="15" height="15" fill="#3572A5" stroke-width="1" stroke="#ffffff"/><text transform="scale(0.095)" x="263" y="132" textLength="1149" lengthAdjust="spacingAndGlyphs">Python 0.62%</text></g><g transform="translate(15, 126)"><rect x="0.5" y="0.5" rx="2" width="15" height="15" fill="#dea584" stroke-width="1" stroke="#ffffff"/><text transform="scale(0.095)" x="263" y="132" textLength="946" lengthAdjust="spacingAndGlyphs">Rust 0.62%</text></g><g transform="translate(15, 147)"><rect x="0.5" y="0.5" rx="2" width="15" height="15" fill="#e34c26" stroke-width="1" stroke="#ffffff"/><text transform="scale(0.095)" x="263" y="132" textLength="1036" lengthAdjust="spacingAndGlyphs">HTML 0.47%</text></g><g transform="translate(15, 168)"><rect x="0.5" y="0.5" rx="2" width="15" height="15" fill="#f34b7d" stroke-width="1" stroke="#ffffff"/><text transform="scale(0.095)" x="263" y="132" textLength="969" lengthAdjust="spacingAndGlyphs">C++ 0.46%</text></g><g transform="translate(15, 189)"><rect x="0.5" y="0.5" rx="2" width="15" height="15" fill="#ca0f21" stroke-width="1" stroke="#ffffff"/><text transform="scale(0.095)" x="263" y="132" textLength="1071" lengthAdjust="spacingAndGlyphs">Scilab 0.25%</text></g><g transform="translate(15, 210)"><rect x="0.5" y="0.5" rx="2" width="15" height="15" fill="#41b883" stroke-width="1" stroke="#ffffff"/><text transform="scale(0.095)" x="263" y="132" textLength="897" lengthAdjust="spacingAndGlyphs">Vue 0.15%</text></g><g transform="translate(15, 231)"><rect x="0.5" y="0.5" rx="2" width="15" height="15" fill="#89e051" stroke-width="1" stroke="#ffffff"/><text transform="scale(0.095)" x="263" y="132" textLength="982" lengthAdjust="spacingAndGlyphs">Shell 0.14%</text><rect x="248.5" y="0.5" rx="2" width="15" height="15" fill="#DA5B0B" stroke-width="1" stroke="#ffffff"/><text transform="scale(0.095)" x="2874" y="132" textLength="2020" lengthAdjust="spacingAndGlyphs">Jupyter Notebook 0.05%</text></g><g transform="translate(15, 252)"><rect x="0.5" y="0.5" rx="2" width="15" height="15" fill="#00ADD8" stroke-width="1" stroke="#ffffff"/><text transform="scale(0.095)" x="263" y="132" textLength="806" lengthAdjust="spacingAndGlyphs">Go 0.03%</text><rect x="248.5" y="0.5" rx="2" width="15" height="15" fill="#012456" stroke-width="1" stroke="#ffffff"/><text transform="scale(0.095)" x="2874" y="132" textLength="1486" lengthAdjust="spacingAndGlyphs">PowerShell 0.03%</text></g><g transform="translate(15, 273)"><rect x="0.5" y="0.5" rx="2" width="15" height="15" fill="#C1F12E" stroke-width="1" stroke="#ffffff"/><text transform="scale(0.095)" x="263" y="132" textLength="1304" lengthAdjust="spacingAndGlyphs">Batchfile 0.02%</text><rect x="248.5" y="0.5" rx="2" width="15" height="15" fill="#8ea64c" stroke-width="1" stroke="#ffffff"/><text transform="scale(0.095)" x="2874" y="132" textLength="1996" lengthAdjust="spacingAndGlyphs">Tree-sitter Query 0.02%</text></g><g transform="translate(15, 294)"><rect x="0.5" y="0.5" rx="2" width="15" height="15" fill="#959da5" stroke-width="1" stroke="#ffffff"/><text transform="scale(0.095)" x="263" y="132" textLength="958" lengthAdjust="spacingAndGlyphs">NSIS 0.02%</text><rect x="248.5" y="0.5" rx="2" width="15" height="15" fill="#DA3434" stroke-width="1" stroke="#ffffff"/><text transform="scale(0.095)" x="2874" y="132" textLength="1134" lengthAdjust="spacingAndGlyphs">CMake 0.01%</text></g><g transform="translate(15, 315)"><rect x="0.5" y="0.5" rx="2" width="15" height="15" fill="#555555" stroke-width="1" stroke="#ffffff"/><text transform="scale(0.095)" x="263" y="132" textLength="693" lengthAdjust="spacingAndGlyphs">C 0.01%</text><rect x="248.5" y="0.5" rx="2" width="15" height="15" fill="#c6538c" stroke-width="1" stroke="#ffffff"/><text transform="scale(0.095)" x="2874" y="132" textLength="1008" lengthAdjust="spacingAndGlyphs">SCSS 0.01%</text></g><g transform="translate(15, 336)"><rect x="0.5" y="0.5" rx="2" width="15" height="15" fill="#4298b8" stroke-width="1" stroke="#ffffff"/><text transform="scale(0.095)" x="263" y="132" textLength="1168" lengthAdjust="spacingAndGlyphs">Groovy 0.00%</text><rect x="248.5" y="0.5" rx="2" width="15" height="15" fill="#3A4E3A" stroke-width="1" stroke="#ffffff"/><text transform="scale(0.095)" x="2874" y="132" textLength="1004" lengthAdjust="spacingAndGlyphs">Cuda 0.00%</text></g><g transform="translate(15, 357)"><rect x="0.5" y="0.5" rx="2" width="15" height="15" fill="#b07219" stroke-width="1" stroke="#ffffff"/><text transform="scale(0.095)" x="263" y="132" textLength="933" lengthAdjust="spacingAndGlyphs">Java 0.00%</text><rect x="248.5" y="0.5" rx="2" width="15" height="15" fill="#427819" stroke-width="1" stroke="#ffffff"/><text transform="scale(0.095)" x="2874" y="132" textLength="1272" lengthAdjust="spacingAndGlyphs">Makefile 0.00%</text></g><g transform="translate(15, 378)"><rect x="0.5" y="0.5" rx="2" width="15" height="15" fill="#0298c3" stroke-width="1" stroke="#ffffff"/><text transform="scale(0.095)" x="263" y="132" textLength="892" lengthAdjust="spacingAndGlyphs">Perl 0.00%</text><rect x="248.5" y="0.5" rx="2" width="15" height="15" fill="#701516" stroke-width="1" stroke="#ffffff"/><text transform="scale(0.095)" x="2874" y="132" textLength="999" lengthAdjust="spacingAndGlyphs">Ruby 0.00%</text></g><g transform="translate(15, 399)"><rect x="0.5" y="0.5" rx="2" width="15" height="15" fill="#3D6117" stroke-width="1" stroke="#ffffff"/><text transform="scale(0.095)" x="263" y="132" textLength="894" lengthAdjust="spacingAndGlyphs">TeX 0.00%</text><rect x="248.5" y="0.5" rx="2" width="15" height="15" fill="#6866fb" stroke-width="1" stroke="#ffffff"/><text transform="scale(0.095)" x="2874" y="132" textLength="1814" lengthAdjust="spacingAndGlyphs">Objective-C++ 0.00%</text></g><g transform="translate(15, 420)"><rect x="0.5" y="0.5" rx="2" width="15" height="15" fill="#438eff" stroke-width="1" stroke="#ffffff"/><text transform="scale(0.095)" x="263" y="132" textLength="1538" lengthAdjust="spacingAndGlyphs">Objective-C 0.00%</text><rect x="248.5" y="0.5" rx="2" width="15" height="15" fill="#db5855" stroke-width="1" stroke="#ffffff"/><text transform="scale(0.095)" x="2874" y="132" textLength="1161" lengthAdjust="spacingAndGlyphs">Clojure 0.00%</text></g><g transform="translate(15, 441)"><rect x="0.5" y="0.5" rx="2" width="15" height="15" fill="#384d54" stroke-width="1" stroke="#ffffff"/><text transform="scale(0.095)" x="263" y="132" textLength="1414" lengthAdjust="spacingAndGlyphs">Dockerfile 0.00%</text><rect x="248.5" y="0.5" rx="2" width="15" height="15" fill="#f7931e" stroke-width="1" stroke="#ffffff"/><text transform="scale(0.095)" x="2874" y="132" textLength="1520" lengthAdjust="spacingAndGlyphs">Handlebars 0.00%</text></g><g transform="translate(15, 462)"><rect x="0.5" y="0.5" rx="2" width="15" height="15" fill="#1d365d" stroke-width="1" stroke="#ffffff"/><text transform="scale(0.095)" x="263" y="132" textLength="942" lengthAdjust="spacingAndGlyphs">Less 0.00%</text><rect x="248.5" y="0.5" rx="2" width="15" height="15" fill="#4F5D95" stroke-width="1" stroke="#ffffff"/><text transform="scale(0.095)" x="2874" y="132" textLength="900" lengthAdjust="spacingAndGlyphs">PHP 0.00%</text></g><g transform="translate(15, 483)"><rect x="0.5" y="0.5" rx="2" width="15" height="15" fill="#a270ba" stroke-width="1" stroke="#ffffff"/><text transform="scale(0.095)" x="263" y="132" textLength="933" lengthAdjust="spacingAndGlyphs">Julia 0.00%</text><rect x="248.5" y="0.5" rx="2" width="15" height="15" fill="#945db7" stroke-width="1" stroke="#ffffff"/><text transform="scale(0.095)" x="2874" y="132" textLength="1995" lengthAdjust="spacingAndGlyphs">Visual Basic .NET 0.00%</text></g><g transform="translate(15, 504)"><rect x="0.5" y="0.5" rx="2" width="15" height="15" fill="#178600" stroke-width="1" stroke="#ffffff"/><text transform="scale(0.095)" x="263" y="132" textLength="831" lengthAdjust="spacingAndGlyphs">C# 0.00%</text><rect x="248.5" y="0.5" rx="2" width="15" height="15" fill="#0000fb" stroke-width="1" stroke="#ffffff"/><text transform="scale(0.095)" x="2874" y="132" textLength="993" lengthAdjust="spacingAndGlyphs">Raku 0.00%</text></g><g transform="translate(15, 525)"><rect x="0.5" y="0.5" rx="2" width="15" height="15" fill="#7e858d" stroke-width="1" stroke="#ffffff"/><text transform="scale(0.095)" x="263" y="132" textLength="1017" lengthAdjust="spacingAndGlyphs">Mako 0.00%</text><rect x="248.5" y="0.5" rx="2" width="15" height="15" fill="#a86454" stroke-width="1" stroke="#ffffff"/><text transform="scale(0.095)" x="2874" y="132" textLength="886" lengthAdjust="spacingAndGlyphs">Pug 0.00%</text></g><g transform="translate(15, 546)"><rect x="0.5" y="0.5" rx="2" width="15" height="15" fill="#b845fc" stroke-width="1" stroke="#ffffff"/><text transform="scale(0.095)" x="263" y="132" textLength="810" lengthAdjust="spacingAndGlyphs">F# 0.00%</text><rect x="248.5" y="0.5" rx="2" width="15" height="15" fill="#244776" stroke-width="1" stroke="#ffffff"/><text transform="scale(0.095)" x="2874" y="132" textLength="1593" lengthAdjust="spacingAndGlyphs">CoffeeScript 0.00%</text></g><g transform="translate(15, 567)"><rect x="0.5" y="0.5" rx="2" width="15" height="15" fill="#198CE7" stroke-width="1" stroke="#ffffff"/><text transform="scale(0.095)" x="263" y="132" textLength="692" lengthAdjust="spacingAndGlyphs">R 0.00%</text><rect x="248.5" y="0.5" rx="2" width="15" height="15" fill="#ecdebe" stroke-width="1" stroke="#ffffff"/><text transform="scale(0.095)" x="2874" y="132" textLength="909" lengthAdjust="spacingAndGlyphs">Roff 0.00%</text></g><g transform="translate(15, 588)"><rect x="0.5" y="0.5" rx="2" width="15" height="15" fill="#222c37" stroke-width="1" stroke="#ffffff"/><text transform="scale(0.095)" x="263" y="132" textLength="1460" lengthAdjust="spacingAndGlyphs">ShaderLab 0.00%</text><rect x="248.5" y="0.5" rx="2" width="15" height="15" fill="#00B4AB" stroke-width="1" stroke="#ffffff"/><text transform="scale(0.095)" x="2874" y="132" textLength="938" lengthAdjust="spacingAndGlyphs">Dart 0.00%</text></g><g transform="translate(15, 609)"><rect x="0.5" y="0.5" rx="2" width="15" height="15" fill="#F05138" stroke-width="1" stroke="#ffffff"/><text transform="scale(0.095)" x="263" y="132" textLength="987" lengthAdjust="spacingAndGlyphs">Swift 0.00%</text><rect x="248.5" y="0.5" rx="2" width="15" height="15" fill="#000080" stroke-width="1" stroke="#ffffff"/><text transform="scale(0.095)" x="2874" y="132" textLength="874" lengthAdjust="spacingAndGlyphs">Lua 0.00%</text></g><g transform="translate(15, 630)"><rect x="0.5" y="0.5" rx="2" width="15" height="15" fill="#aace60" stroke-width="1" stroke="#ffffff"/><text transform="scale(0.095)" x="263" y="132" textLength="990" lengthAdjust="spacingAndGlyphs">HLSL 0.00%</text><rect x="248.5" y="0.5" rx="2" width="15" height="15" fill="#878787" stroke-width="1" stroke="#ffffff"/><text transform="scale(0.095)" x="2874" y="132" textLength="988" lengthAdjust="spacingAndGlyphs">Hack 0.00%</text></g></g></g></svg>